<svg width="24" height="24" viewBox="0 0 24 24" fill="none" xmlns="http://www.w3.org/2000/svg">
<g clip-path="url(#clip0_3677_296)">
<path fill-rule="evenodd" clip-rule="evenodd" d="M17.2869 8.29917C17.3792 8.20366 17.4895 8.12748 17.6115 8.07507C17.7335 8.02266 17.8647 7.99507 17.9975 7.99392C18.1303 7.99277 18.262 8.01807 18.3849 8.06835C18.5078 8.11863 18.6194 8.19288 18.7133 8.28677C18.8072 8.38067 18.8814 8.49232 18.9317 8.61522C18.982 8.73811 19.0073 8.86979 19.0062 9.00257C19.005 9.13535 18.9774 9.26657 18.925 9.38857C18.8726 9.51058 18.7964 9.62092 18.7009 9.71317L12.7009 15.7132C12.5187 15.8954 12.2731 16.0003 12.0154 16.0059C11.7578 16.0115 11.5079 15.9174 11.3179 15.7432L5.31791 10.2432C5.12244 10.0639 5.00621 9.81429 4.99477 9.5493C4.9891 9.41809 5.00934 9.28705 5.05431 9.16366C5.09929 9.04028 5.16813 8.92695 5.25691 8.83017C5.34568 8.73339 5.45265 8.65503 5.5717 8.59959C5.69076 8.54414 5.81956 8.51269 5.95077 8.50703C6.21576 8.49559 6.47444 8.58988 6.66991 8.76917L11.9639 13.6222L17.2869 8.29917Z" fill="#C4C4C4" fill-opacity="0.8"/>
</g>
<defs>
<clipPath id="clip0_3677_296">
<rect width="24" height="24" fill="white"/>
</clipPath>
</defs>
</svg>
