<svg width="114" height="29" viewBox="0 0 114 29" fill="none" xmlns="http://www.w3.org/2000/svg">
<path d="M5.58047 3.17799V16.6667C5.58047 18.0175 5.91928 19.056 6.59292 19.7822C7.26655 20.5083 8.25907 20.8753 9.56648 20.8753C10.8739 20.8753 11.8744 20.5122 12.5719 19.7822C13.2695 19.0521 13.6163 18.0136 13.6163 16.6667V3.17799H19.2007V16.6355C19.2007 18.65 18.7662 20.3522 17.8933 21.742C17.0562 23.1046 15.8365 24.1977 14.3816 24.8887C12.9108 25.5954 11.2725 25.9507 9.46683 25.9507C7.66117 25.9507 6.04285 25.6032 4.61586 24.9083C3.19285 24.2172 2.01697 23.1202 1.2397 21.7616C0.410611 20.36 -0.00393465 18.65 5.13601e-05 16.6394V3.17799H5.58047Z" fill="white"/>
<path d="M28.1454 21.1994H36.0496V25.7281H21.9072V21.3594L29.4847 12.3331H21.975V7.80435H35.8862V12.173L28.1454 21.1994Z" fill="white"/>
<path fill-rule="evenodd" clip-rule="evenodd" d="M56.8094 2.02691C56.9763 1.6408 57.2116 1.29133 57.5027 1.00272C58.1553 0.335834 59.0017 9.15527e-05 60.0375 9.15527e-05C61.0481 9.15527e-05 61.8818 0.335834 62.5387 1.00272C62.8587 1.32007 63.1071 1.711 63.2797 2.14332C63.4482 2.57565 63.5324 3.04477 63.5197 3.51849C63.5282 3.98301 63.444 4.44753 63.2755 4.87526C63.1071 5.30298 62.8545 5.68472 62.5387 5.99746C62.2881 6.25347 62.0109 6.46067 61.707 6.61882C61.8076 6.78711 61.9046 6.95825 61.9978 7.13214C63.1498 9.24452 63.7203 11.6796 63.7203 14.4492C63.7203 17.2188 63.1388 19.6539 61.9757 21.7663C60.8514 23.8317 59.2009 25.5157 57.2071 26.6189C55.1966 27.7455 52.948 28.3088 50.4723 28.3088C47.9966 28.3088 45.7646 27.7455 43.7819 26.6189H43.7929C41.8323 25.5157 40.2151 23.8434 39.1185 21.7897C37.9831 19.7008 37.4126 17.254 37.4126 14.4492C37.4126 11.6444 37.9886 9.24452 39.1351 7.13214C40.2428 5.07256 41.8766 3.38852 43.8538 2.27952C45.8477 1.15292 48.0908 0.589616 50.5665 0.589616C52.8496 0.589616 54.935 1.06871 56.8094 2.02691ZM55.8335 14.4551C55.8335 16.6085 55.3129 18.2691 54.2717 19.425C53.7899 19.9825 53.2028 20.4284 52.5492 20.7277C51.8957 21.0269 51.1868 21.1795 50.4778 21.1678C49.78 21.1854 49.0821 21.0387 48.4452 20.7394C47.8083 20.4402 47.2379 19.9942 46.7782 19.4309C45.7979 18.275 45.3049 16.6496 45.3049 14.4609C45.3049 12.2723 45.8034 10.6058 46.8003 9.46163C47.7972 8.31742 49.0545 7.74825 50.5665 7.74825C51.2699 7.73651 51.9677 7.88321 52.6157 8.18246C53.2637 8.48172 53.8397 8.92767 54.3105 9.4851C55.324 10.641 55.8335 12.3016 55.8335 14.4551Z" fill="url(#paint0_linear_49_1317)"/>
<path d="M65.8191 25.1028V11.821C65.8191 10.7096 66.0924 9.71669 66.639 8.84217C67.1855 7.94943 67.9325 7.24799 68.8799 6.73785C69.8455 6.22771 70.9387 5.97264 72.1594 5.97264H79.7294V10.5912H73.0612C72.6786 10.5912 72.3598 10.7187 72.1047 10.9738C71.8497 11.2289 71.7221 11.5477 71.7221 11.9303V14.0346H78.8549V18.5439H71.7221V25.1028H65.8191ZM82.4162 25.1028V10.9465H87.6633V25.1028H82.4162ZM85.0398 9.49806C84.2746 9.49806 83.6187 9.22477 83.0721 8.67819C82.5255 8.1134 82.2522 7.45751 82.2522 6.71052C82.2522 5.94532 82.5255 5.28943 83.0721 4.74285C83.6187 4.17806 84.2746 3.89566 85.0398 3.89566C85.805 3.89566 86.4609 4.17806 87.0074 4.74285C87.554 5.28943 87.8273 5.94532 87.8273 6.71052C87.8273 7.45751 87.554 8.1134 87.0074 8.67819C86.4609 9.22477 85.805 9.49806 85.0398 9.49806ZM105.546 25.4581C104.38 25.4581 103.277 25.2212 102.239 24.7475C101.219 24.2556 100.39 23.545 99.752 22.6159C99.1144 21.6867 98.7955 20.5571 98.7955 19.2271V11.821C98.7955 11.5842 98.7409 11.3837 98.6316 11.2198C98.5405 11.0376 98.4129 10.9009 98.249 10.8098C98.085 10.7187 97.8937 10.6732 97.6751 10.6732C97.4564 10.6732 97.256 10.7187 97.0738 10.8098C96.9098 10.9009 96.7732 11.0376 96.6639 11.2198C96.5728 11.3837 96.5272 11.5842 96.5272 11.821V25.1028H90.8975V11.8757C90.8975 10.5457 91.2072 9.41607 91.8267 8.48689C92.4644 7.55771 93.3024 6.84717 94.3409 6.35525C95.3794 5.86333 96.4908 5.61737 97.6751 5.61737C98.8593 5.61737 99.9616 5.86333 100.982 6.35525C102.002 6.84717 102.831 7.55771 103.469 8.48689C104.106 9.41607 104.425 10.5457 104.425 11.8757V19.2818C104.425 19.5186 104.48 19.7281 104.589 19.9103C104.699 20.0925 104.835 20.2292 104.999 20.3202C105.163 20.4113 105.336 20.4569 105.518 20.4569C105.719 20.4569 105.91 20.4113 106.092 20.3202C106.275 20.2292 106.42 20.0925 106.53 19.9103C106.639 19.7281 106.694 19.5186 106.694 19.2818V5.97264H112.296V19.2271C112.296 20.5571 111.977 21.6867 111.339 22.6159C110.702 23.545 109.864 24.2556 108.825 24.7475C107.805 25.2212 106.712 25.4581 105.546 25.4581Z" fill="white"/>
<defs>
<linearGradient id="paint0_linear_49_1317" x1="50.5665" y1="28.3088" x2="50.5665" y2="-1.43926" gradientUnits="userSpaceOnUse">
<stop offset="0.100962" stop-color="#320F4F"/>
<stop offset="1" stop-color="#38C0EE"/>
</linearGradient>
</defs>
</svg>
